<svg xmlns="http://www.w3.org/2000/svg" xmlns:xlink="http://www.w3.org/1999/xlink" viewBox="0 0 278.84 44.03"><defs><style>.cls-1{fill:url(#linear-gradient);}.cls-2{fill:url(#linear-gradient-2);}.cls-3{fill:url(#linear-gradient-3);}.cls-4{fill:url(#linear-gradient-4);}.cls-5{fill:url(#linear-gradient-5);}.cls-6{fill:url(#linear-gradient-6);}</style><linearGradient id="linear-gradient" x1="30.47" y1="5.06" x2="32.14" y2="51.94" gradientUnits="userSpaceOnUse"><stop offset="0" stop-color="#29b2a0"/><stop offset="0.33" stop-color="#28af9d"/><stop offset="0.62" stop-color="#25a493"/><stop offset="0.88" stop-color="#209283"/><stop offset="1" stop-color="#1d887a"/></linearGradient><linearGradient id="linear-gradient-2" x1="82.73" y1="3.19" x2="84.41" y2="50.08" xlink:href="#linear-gradient"/><linearGradient id="linear-gradient-3" x1="125.55" y1="1.66" x2="127.22" y2="48.55" xlink:href="#linear-gradient"/><linearGradient id="linear-gradient-4" x1="171.04" y1="0.04" x2="172.72" y2="46.92" xlink:href="#linear-gradient"/><linearGradient id="linear-gradient-5" x1="258.21" y1="-3.07" x2="259.88" y2="43.81" xlink:href="#linear-gradient"/><linearGradient id="linear-gradient-6" x1="214.34" y1="-1.51" x2="216.01" y2="45.38" xlink:href="#linear-gradient"/></defs><title>Asset 3</title><g id="Layer_2" data-name="Layer 2"><g id="Layer_2-2" data-name="Layer 2"><polygon class="cls-1" points="43.35 24.2 36.64 0 23.98 0 17.28 24.24 12.71 0 0 0 9.63 43.29 22.75 43.29 30.31 16.04 37.91 43.29 51.03 43.29 60.57 0 47.93 0 43.35 24.2"/><path class="cls-2" d="M76.87,0,60.6,43.29H82.14l.06-7.19.11-3.33a7.83,7.83,0,0,1-5.82-6,8,8,0,0,1-.16-1.56V17.9a1.57,1.57,0,1,1,3.14,0v7.52a1.7,1.7,0,0,0,1.7,1.7h1.42V17.9a1.57,1.57,0,1,1,3.13,0v9.22h1.42a1.7,1.7,0,0,0,1.7-1.7V17.9a1.57,1.57,0,1,1,3.14,0v7.27a8,8,0,0,1-.16,1.56,7.83,7.83,0,0,1-5.82,6l.07,3.36.1,7.16h21.54L91.46,0Z"/><path class="cls-3" d="M130,26.67q0,4-1.05,5.62A3.6,3.6,0,0,1,125.66,34a3.69,3.69,0,0,1-2.19-.56,4.59,4.59,0,0,1-1.59-2.24,14.56,14.56,0,0,1-.5-4.26l-12.79,1.75a19.44,19.44,0,0,0,2.32,8.43,12.78,12.78,0,0,0,5.56,5.18c2.41,1.18,5.79,1.77,10.16,1.77a17.82,17.82,0,0,0,10.18-2.68,12.94,12.94,0,0,0,5.28-6.56q1.32-3.86,1.32-11.27V0H130Z"/><path class="cls-4" d="M190.17,24.11a12.16,12.16,0,0,0-6.87-3.85,10.57,10.57,0,0,0,4.67-2.9,9.69,9.69,0,0,0,2.39-6.58A10.06,10.06,0,0,0,187,3.1Q183.67,0,177.4,0H152.35V43.29h23.1a56.71,56.71,0,0,0,6-.59,14,14,0,0,0,5.08-1.41A11.58,11.58,0,0,0,190.8,37,11.74,11.74,0,0,0,192.37,31,10.58,10.58,0,0,0,190.17,24.11ZM165.85,8.77h5.91c2,0,3.45.35,4.26,1.06a3.71,3.71,0,0,1,1.23,3A3.91,3.91,0,0,1,176,15.9c-.81.72-2.27,1.08-4.35,1.08h-5.82Zm11.69,24Q176.13,34,172.67,34h-6.82V25.22h6.79c2.35,0,4,.39,4.92,1.17a3.8,3.8,0,0,1,1.4,3.08A4.13,4.13,0,0,1,177.54,32.77Z"/><polygon class="cls-5" points="238.17 10.69 251.82 10.69 251.82 43.29 265.19 43.29 265.19 10.69 278.84 10.69 278.84 0 238.17 0 238.17 10.69"/><path class="cls-6" d="M208.64,0,192.37,43.29h21.52l.06-7,.12-3.59a6.81,6.81,0,0,1-.78-.34,8.57,8.57,0,0,1-4-7.64,13.5,13.5,0,0,1,2-6.85c1.2-1.93,2.86-3.3,4.7-3.3s3.49,1.37,4.7,3.3a13.6,13.6,0,0,1,2,6.85,8.58,8.58,0,0,1-4,7.64,6.81,6.81,0,0,1-.78.34l0,3.38.14,7.24H239.5L223.23,0Z"/></g></g></svg>